<svg xmlns="http://www.w3.org/2000/svg" width="24" height="24" fill="#fff" xmlns:v="https://vecta.io/nano"><path d="M12 10.527h9.71c.107.598.161 1.17.161 1.714 0 1.938-.406 3.667-1.219 5.19S18.681 20.143 17.176 21s-3.23 1.286-5.176 1.286a10.11 10.11 0 0 1-4.004-.81c-1.268-.54-2.362-1.27-3.281-2.19s-1.65-2.013-2.19-3.281A10.11 10.11 0 0 1 1.714 12a10.11 10.11 0 0 1 .81-4.004c.54-1.268 1.27-2.362 2.19-3.281s2.013-1.65 3.281-2.19A10.11 10.11 0 0 1 12 1.714c2.679 0 4.978.897 6.897 2.692l-2.799 2.692C15 6.036 13.634 5.504 12 5.504c-1.152 0-2.217.29-3.194.871S7.054 7.743 6.482 8.739 5.625 10.821 5.625 12s.286 2.266.857 3.261 1.346 1.783 2.324 2.364 2.042.87 3.194.87c.777 0 1.491-.107 2.143-.321s1.188-.482 1.607-.804.786-.687 1.098-1.098.542-.799.69-1.165.248-.714.301-1.045H12v-3.536z"/></svg>