<svg fill="#fff" width="24" height="24" viewBox="0 0 24 24" xmlns="http://www.w3.org/2000/svg">
<g clip-path="url(#clip0_4_87)">
<path fill="#fff" d="M2.99995 5.97499C2.99995 5.40259 3.20266 4.93036 3.60806 4.55832C4.01346 4.18626 4.5405 4.00024 5.18914 4.00024C5.82621 4.00024 6.34165 4.1834 6.73548 4.54974C7.14088 4.92751 7.34358 5.41976 7.34358 6.0265C7.34358 6.576 7.14668 7.0339 6.75285 7.40024C6.34745 7.77801 5.81463 7.9669 5.15439 7.9669H5.13702C4.49995 7.9669 3.98452 7.77801 3.59069 7.40024C3.19686 7.02246 2.99995 6.54737 2.99995 5.97499ZM3.22582 21.0002V9.52953H7.08297V21.0002H3.22582ZM9.22003 21.0002H13.0772V14.5952C13.0772 14.1945 13.1235 13.8854 13.2162 13.6679C13.3783 13.2787 13.6245 12.9495 13.9546 12.6805C14.2847 12.4115 14.6988 12.277 15.1969 12.277C16.4942 12.277 17.1428 13.1413 17.1428 14.8699V21.0002H21V14.4235C21 12.7292 20.5946 11.4442 19.7837 10.5684C18.9729 9.69266 17.9015 9.25478 16.5695 9.25478C15.0752 9.25478 13.9112 9.89013 13.0772 11.1608V11.1952H13.0598L13.0772 11.1608V9.52953H9.22003C9.24319 9.89585 9.25478 11.0349 9.25478 12.9467C9.25478 14.8585 9.24319 17.543 9.22003 21.0002Z"/>
</g>
<defs>
<clipPath id="clip0_4_87">
<rect fill="#fff" width="18" height="17" transform="translate(3 4)"/>
</clipPath>
</defs>
</svg>