<svg xmlns="http://www.w3.org/2000/svg" width="24" height="24" fill="#fff" xmlns:v="https://vecta.io/nano"><path d="M22 5.8a8.49 8.49 0 0 1-2.36.64 4.13 4.13 0 0 0 1.81-2.27 8.21 8.21 0 0 1-2.61 1 4.1 4.1 0 0 0-4.946-.837A4.1 4.1 0 0 0 11.84 8.91a11.64 11.64 0 0 1-8.45-4.29 4.16 4.16 0 0 0-.55 2.07 4.09 4.09 0 0 0 1.82 3.41 4.05 4.05 0 0 1-1.86-.51v.05a4.1 4.1 0 0 0 3.3 4 3.93 3.93 0 0 1-1.1.17c-.258-.003-.516-.026-.77-.07a4.11 4.11 0 0 0 3.83 2.84A8.22 8.22 0 0 1 3 18.34a7.92 7.92 0 0 1-1-.06 11.57 11.57 0 0 0 6.29 1.85 11.59 11.59 0 0 0 8.305-3.383A11.59 11.59 0 0 0 20 8.45v-.53a8.43 8.43 0 0 0 2-2.12z"/></svg>